HIERARCHY
ROOT Hips
{
	OFFSET	0	0	0
	CHANNELS 6  Xposition Yposition Zposition Xrotation Yrotation Zrotation
	JOINT Spine
	{
		OFFSET	0	6.86795	1.37906
		CHANNELS 3  Xrotation Yrotation Zrotation
		JOINT Spine1
		{
			OFFSET	0	11.7606	-2.1001
			CHANNELS 3  Xrotation Yrotation Zrotation
			JOINT Spine2
			{
				OFFSET	0	8.91491	0.955545
				CHANNELS 3  Xrotation Yrotation Zrotation
				JOINT Spine3
				{
					OFFSET	0	10.6685	3.17115
					CHANNELS 3  Xrotation Yrotation Zrotation
					JOINT Spine4
					{
						OFFSET	0	15.7927	-1.61708
						CHANNELS 3  Xrotation Yrotation Zrotation
						JOINT Neck
						{
							OFFSET	0	7.53935	-5.28175
							CHANNELS 3  Xrotation Yrotation Zrotation
							JOINT Head
							{
								OFFSET	0	9.05142	-2.70913
								CHANNELS 3  Xrotation Yrotation Zrotation
								End Site
								{
									OFFSET	0	18.8799	-0.913543
								}
							}
						}
					}
					JOINT LeftShoulder
					{
						OFFSET	-4.53621	19.1949	-9.05142
						CHANNELS 3  Xrotation Yrotation Zrotation
						JOINT LeftArm
						{
							OFFSET	-9.8955	-2.70912	3.47568
							CHANNELS 3  Xrotation Yrotation Zrotation
							JOINT LeftForeArm
							{
								OFFSET	-33.3495	-1.52213	2.38045
								CHANNELS 3  Xrotation Yrotation Zrotation
								JOINT LeftHand
								{
									OFFSET	-27.054	-1.86958	1.93108
									CHANNELS 3  Xrotation Yrotation Zrotation
									End Site
									{
										OFFSET	-9.87335	-0.682306	0.704704
									}
								}
							}
						}
					}
					JOINT RightShoulder
					{
						OFFSET	4.53621	19.1949	-9.05142
						CHANNELS 3  Xrotation Yrotation Zrotation
						JOINT RightArm
						{
							OFFSET	9.8955	-2.70912	3.47568
							CHANNELS 3  Xrotation Yrotation Zrotation
							JOINT RightForeArm
							{
								OFFSET	33.3495	-1.52213	2.38045
								CHANNELS 3  Xrotation Yrotation Zrotation
								JOINT RightHand
								{
									OFFSET	27.054	-1.86958	1.93108
									CHANNELS 3  Xrotation Yrotation Zrotation
									End Site
									{
										OFFSET	9.87335	-0.682306	0.704704
									}
								}
							}
						}
					}
				}
			}
		}
	}
	JOINT LeftUpLeg
	{
		OFFSET	-9.35843	-3.43397	-0.689532
		CHANNELS 3  Xrotation Yrotation Zrotation
		JOINT LeftLeg
		{
			OFFSET	-2.06148	-40.3938	-0.631444
			CHANNELS 3  Xrotation Yrotation Zrotation
			JOINT LeftFoot
			{
				OFFSET	-2.01493	-37.1416	3.19418
				CHANNELS 3  Xrotation Yrotation Zrotation
				JOINT LeftToeBase
				{
					OFFSET	0	-4.59973	-12.2169
					CHANNELS 3  Xrotation Yrotation Zrotation
					End Site
					{
						OFFSET	0	-1.83989	-7.35956
					}
				}
			}
		}
	}
	JOINT RightUpLeg
	{
		OFFSET	9.35843	-3.43397	-0.689532
		CHANNELS 3  Xrotation Yrotation Zrotation
		JOINT RightLeg
		{
			OFFSET	2.06148	-40.3938	-0.631444
			CHANNELS 3  Xrotation Yrotation Zrotation
			JOINT RightFoot
			{
				OFFSET	2.01493	-37.1416	3.19418
				CHANNELS 3  Xrotation Yrotation Zrotation
				JOINT RightToeBase
				{
					OFFSET	0	-4.59973	-12.2169
					CHANNELS 3  Xrotation Yrotation Zrotation
					End Site
					{
						OFFSET	0	-1.83989	-7.35956
					}
				}
			}
		}
	}
}
MOTION
Frames: 15
Frame Time: 0.020408
 0 -8.54439 2.99032 -0 0 -0 -0 0 -0 -0 0 -0 -0 0 -0 -0 0 -0 -0 0 -0 -0 0 -0 -0 0 -0 -0 0 -0 -0 0 -0 -0 0 -0 -0 0 -0 -0 0 -0 -0 0 -0 -0 0 -0 -0 0 -0 -0 0 -0 -0 0 -0 -0 0 -0 -0 0 -0 -0 0 -0 -0 0 -0 -0 0 -0 -0 0 -0
 96.7028 87.4474 -274.396 16.7529 167.517 -3.64638 7.94107e-05 0.00335979 -1.35397 9.73854 0.00671624 -2.25662 11.1363 0.0201487 -2.25662 10.6839 0.00335979 -1.35397 173.466 179.949 179.552 152.242 160.795 -174.306 169.494 143.057 -171.886 1.52424 22.8971 2.11569 144.864 -141.162 -116.962 172.342 -146.648 173.903 -0 -5.83706 -4.37824 1.37493 19.4493 -2.95885 108.504 105.175 157.794 5.25233 15.8155 0.0649086 -0 14.2261 -0.458371 26.7095 -19.9953 9.93307 158.612 170.011 179.66 13.6249 -0.00659331 -11.3915 1.29664 0 0 20.7351 -6.33582 4.04907 6.06942 -8.5888 0.251658 178.036 179.997 168.5 179.581 180 -180
 96.9429 87.512 -274.309 16.7149 166.2 -4.10765 2.60091e-05 0.00107681 -1.38364 9.64187 0.00215251 -2.30607 11.0414 0.00645753 -2.30607 10.626 0.00107681 -1.38364 173.419 179.947 179.542 152.196 160.744 -173.96 169.471 143.004 -171.78 1.50062 22.8825 2.08351 145.324 -142.811 -115.944 172.48 -146.197 173.984 -0 -5.00308 -5.05213 1.4387 19.5774 -3.09716 109.3 105.286 157.463 5.40266 14.9653 0.218403 -0 14.3196 -0.798819 26.3295 -19.2894 9.98749 159.69 170.008 179.629 12.6962 -0.00916617 -11.2985 1.28217 0 0 20.7637 -7.20549 4.17483 6.89783 -9.64208 0.27639 176.39 179.928 168.486 179.528 180 -180
 97.1513 87.5593 -274.294 16.697 165.608 -4.24459 180 -179.995 178.586 9.55124 -0.00973839 -2.35654 10.9554 -0.0292152 -2.35654 10.5827 -0.00487183 -1.41392 173.349 179.945 179.532 152.076 160.703 -173.651 169.421 142.947 -171.672 1.49832 22.8573 2.08141 145.823 -144.083 -115.099 172.597 -145.812 174.098 -0 -4.29778 -5.53197 1.45152 19.7844 -3.12631 110.218 105.417 157.405 5.55871 14.3303 0.367761 -0 14.402 -1.01616 25.8282 -18.735 9.98163 160.441 169.997 179.65 12.4354 -0.0174846 -11.1891 1.26598 0 0 20.8723 -7.92641 4.1454 7.19481 -10.294 0.236851 174.958 179.841 168.44 179.475 180 -180
 97.2461 87.5938 -274.3 16.6501 164.563 -4.48321 0.000129106 0.00516618 -1.43156 9.43554 0.0103266 -2.38593 10.8472 0.0309799 -2.38593 10.5226 0.00516618 -1.43156 173.27 179.944 179.526 151.953 160.687 -173.41 169.374 142.925 -171.589 1.45517 22.8845 2.02024 146.137 -145.123 -114.515 172.678 -145.49 174.132 -0 -3.72044 -5.80976 1.45997 19.9502 -3.14573 111.016 105.336 157.153 5.6909 13.6837 0.272123 -0 14.498 -1.37308 25.3092 -18.2429 10.0248 161.334 170.011 179.727 12.2977 -0.0273887 -11.0586 1.25304 0 0 21.1425 -8.66238 4.01096 7.38202 -10.3112 0.264885 173.262 179.898 168.456 179.416 180 -180
 97.3147 87.5979 -274.206 16.4962 163.09 -4.88086 0.000159517 0.0063678 -1.435 9.30742 0.0127285 -2.39166 10.7168 0.0381855 -2.39166 10.4296 0.0063678 -1.435 173.244 179.944 179.525 152.003 160.706 -173.214 169.405 143.004 -171.566 1.468 22.978 2.03407 146.142 -146.094 -114.173 172.735 -145.227 174.066 -0 -3.22259 -6.02496 1.43906 19.7559 -3.09925 112.38 105.109 155.983 5.82425 13.2634 0.49795 -0 14.6134 -1.52793 24.4473 -17.6495 9.73059 161.929 169.949 179.777 12.7222 0.0327861 -10.9875 1.24095 0 0 21.5813 -9.39354 4.12258 7.42707 -10.2898 0.309592 172.233 179.983 168.475 179.358 180 -180
 97.2986 87.6009 -274.078 16.4734 161.614 -5.02878 0.000272724 0.0104897 -1.48931 9.16872 0.0209668 -2.48218 10.5805 0.0629005 -2.48219 10.3419 0.0104897 -1.48931 173.187 179.941 179.507 151.965 160.771 -172.922 169.416 143.168 -171.527 1.50465 23.0256 2.08281 146.248 -146.934 -114.084 172.836 -145.169 174.198 -0 -2.63165 -5.9711 1.42458 19.6741 -3.06745 113.617 104.834 155.165 5.85789 12.7416 0.470768 -0 14.7422 -1.62904 23.4471 -17.2625 9.28405 162.347 169.958 179.786 13.8697 0.0334586 -10.9864 1.23142 0 0 22.0997 -9.9129 4.11882 7.00868 -10.0289 0.349904 171.467 -179.981 168.488 179.298 180 -180
 97.2638 87.6539 -273.915 16.4086 160.227 -5.18585 0.000289992 0.0108334 -1.53335 9.06859 0.0216529 -2.55558 10.4854 0.0649588 -2.55558 10.2899 0.0108334 -1.53335 173.119 179.939 179.493 151.859 160.84 -172.728 169.399 143.309 -171.498 1.51741 23.0511 2.09936 146.528 -147.641 -113.976 172.935 -145.163 174.269 -0 -2.0567 -5.70921 1.41194 19.6151 -3.03978 114.994 104.616 154.543 5.87513 12.3103 0.449832 -0 14.8728 -1.55099 22.5165 -16.8806 8.96141 162.599 169.946 179.894 15.5614 0.0382687 -10.9944 1.22462 0 0 22.4753 -10.3747 4.135 6.06601 -9.84835 0.565131 171.009 -179.916 168.516 179.241 180 -180
 97.1107 87.6819 -273.765 16.1511 159.577 -5.09255 0.000346589 0.0127116 -1.56181 8.95824 0.0254065 -2.60302 10.3673 0.0762194 -2.60302 10.1921 0.0127116 -1.56181 173.138 179.938 179.483 152.032 160.808 -173.143 169.447 143.222 -171.605 1.57711 22.9062 2.18876 146.438 -148.25 -113.682 173.277 -145.961 174.34 -0 -1.10619 -5.52057 1.40294 19.1369 -3.01683 116.691 104.468 153.036 5.84013 12.0146 0.511544 -0 15.0725 -1.36946 21.7189 -16.7452 8.70364 162.587 169.977 179.813 16.5753 0.00935616 -10.9943 1.21676 0 0 22.8625 -10.6108 4.16386 4.41139 -9.04907 0.381483 171.933 -179.968 168.505 179.186 180 -180
 96.2523 87.6348 -273.891 15.4867 159.458 -4.43113 0.000558955 0.0198269 -1.61484 8.92972 0.0396258 -2.6914 10.3122 0.118877 -2.69141 10.0886 0.0198269 -1.61484 173.325 179.937 179.465 152.618 160.667 -172.742 169.65 143.152 -171.569 1.4249 22.9704 1.9746 147.347 -148.879 -114.035 173.648 -146.562 174.993 -0 -0.0658055 -5.26566 1.48439 19.6673 -3.1963 115.946 104.653 153.651 5.79471 11.7552 0.485729 -0 15.2397 -1.29312 20.6016 -16.9867 7.75181 162.765 170.021 179.609 18.4853 -0.0232351 -11.0219 1.21081 0 0 23.0038 -10.8328 3.80849 2.76415 -8.39496 0.0263876 172.539 -179.933 168.511 179.134 180 -180
 95.7047 87.7318 -274.03 15.3451 159.971 -3.86576 0.000203811 0.00717345 -1.62744 8.89854 0.0143366 -2.71241 10.2212 0.0430098 -2.71241 9.89599 0.00717345 -1.62744 173.717 179.941 179.461 153.813 160.723 -172.71 170.139 143.582 -171.826 1.38094 23.1689 1.90559 148.592 -149.269 -114.134 174.148 -146.924 175.359 -0 1.0938 -4.89886 1.46227 20.9121 -3.15715 115.025 104.387 154.402 5.82325 12.1314 0.530818 -0 15.4862 -1.24145 19.9496 -17.3418 6.80947 163.126 170.244 179.845 19.8848 -0.0171045 -11.0483 1.20439 0 0 22.9409 -10.9595 3.19538 1.48219 -7.56474 -0.0141325 173.481 -179.97 168.509 179.084 180 -180
 95.6927 87.8918 -273.956 15.5284 160.555 -3.62766 0.000171859 0.00617497 -1.59422 8.72826 0.0123414 -2.65703 10.0211 0.0370243 -2.65703 9.69361 0.00617497 -1.59422 173.868 179.943 179.472 154.429 160.992 -173.212 170.432 144.161 -172.165 1.42532 22.8941 1.97835 148.95 -149.685 -113.654 174.64 -147.107 175.392 -0 2.08957 -4.49711 1.42287 21.3567 -3.07461 114.797 104.23 154.03 5.89118 12.4279 0.858025 -0 15.7814 -1.05215 20.0521 -17.4499 6.4469 163.351 170.302 179.788 22.7289 -0.0156564 -11.1041 1.20099 0 0 22.8158 -11.0189 2.64709 179.539 -173.131 -179.862 175.018 -179.988 168.501 179.031 180 -180
 95.2416 87.877 -274.306 15.2029 161.795 -3.11304 0.000407601 0.0145072 -1.60938 8.6436 0.0289941 -2.6823 9.92388 0.0869824 -2.6823 9.59459 0.0145072 -1.60938 173.938 179.943 179.467 154.727 161.141 -173.775 170.564 144.396 -172.398 1.40759 23.1016 1.94518 150.324 -149.901 -113.962 175.06 -146.918 175.816 -0 2.96898 -4.28657 1.45703 21.9758 -3.1519 114.339 104.412 154.378 6.0176 12.73 0.537523 -0 16.0124 -0.553248 20.0156 -17.8153 5.95919 163.555 170.39 -179.985 23.3947 0.00278026 -11.1047 1.1932 0 0 22.7856 -10.9584 2.16817 178.374 -173.962 -179.911 175.493 -179.945 168.489 178.968 180 -180
 95.2434 87.8463 -274.553 14.8258 162.675 -2.79396 0.00035408 0.0127272 -1.5936 8.52215 0.0254368 -2.65601 9.77715 0.0763104 -2.65601 9.4389 0.0127272 -1.5936 174.072 179.945 179.472 155.249 161.269 -174.283 170.777 144.645 -172.647 1.39258 23.0243 1.92756 151.67 -149.683 -113.706 175.601 -147.164 176.224 -0 3.73882 -3.84795 1.4604 22.8599 -3.16343 112.724 104.453 155.232 6.06752 13.473 0.482343 -0 16.3293 -0.276569 20.4601 -18.1227 6.10213 163.098 170.496 179.971 22.8961 0.00191986 -11.0661 1.18348 0 0 22.8077 -10.87 2.15545 177.431 -174.668 -179.634 176.832 -179.88 168.518 178.908 180 -180
 95.5988 87.7952 -274.645 14.6818 163.226 -2.55147 180 -179.997 178.394 8.44486 -0.00578484 -2.67598 9.64927 -0.0173545 -2.67598 9.24487 -0.00289444 -1.60559 174.381 179.948 179.467 156.253 161.404 -175.26 171.152 144.865 -173.068 1.351 22.9054 1.87465 152.549 -149.09 -112.815 176.108 -147.478 176.291 -0 4.44529 -3.27774 1.48424 23.7641 -3.21873 111.074 104.678 156.91 6.10583 13.9219 0.387526 -0 16.4578 0.17053 20.9091 -18.3816 6.34391 162.677 170.543 179.793 22.2127 0.0214288 -11.0341 1.17532 0 0 22.4511 -10.7834 2.02391 176.898 -175.4 -179.977 177.777 -179.985 168.468 178.846 180 -180
